Coordinates
version=1
nRows=13
nColumns=34
inDegrees=no

Units are S.I. units (second, meters, Newtons, ...)
If the header above contains a line with 'inDegrees', this indicates whether rotational values are in degrees (yes) or radians (no).

endheader
time	pelvis_tilt	pelvis_list	pelvis_rotation	pelvis_tx	pelvis_ty	pelvis_tz	hip_flexion_r	hip_adduction_r	hip_rotation_r	knee_angle_r	ankle_angle_r	subtalar_angle_r	mtp_angle_r	hip_flexion_l	hip_adduction_l	hip_rotation_l	knee_angle_l	ankle_angle_l	subtalar_angle_l	mtp_angle_l	lumbar_extension	lumbar_bending	lumbar_rotation	arm_flex_r	arm_add_r	arm_rot_r	elbow_flex_r	pro_sup_r	arm_flex_l	arm_add_l	arm_rot_l	elbow_flex_l	pro_sup_l
1.81	-0.316364	0.0822164	-0.125632	-0.234224	0.882554	-0.550781	0.909086	-0.0494431	0.135105	0.971998	0.142018	-0.33237	0	0.923755	-0.161074	-0.122906	1.00043	0.0698207	-0.178686	0	-0.0420119	-0.0670392	0.030462	2.4645	-0.272337	0.563876	1.36583	1.76047	2.68405	-0.151736	0.776724	1.33462	1.97526
1.82	-0.297466	0.0902154	-0.129081	-0.229015	0.904831	-0.549638	0.850612	-0.0635354	0.125157	0.896916	0.0899159	-0.270532	0	0.858143	-0.149158	-0.150141	0.918844	0.0127092	-0.120447	0	-0.0344802	-0.0782505	0.0406279	2.4935	-0.270031	0.612845	1.29252	1.76929	2.70474	-0.150893	0.824775	1.27324	1.99599
1.83	-0.278065	0.0976526	-0.131074	-0.223985	0.927706	-0.548597	0.788815	-0.0805557	0.111035	0.815122	0.0298099	-0.20402	0	0.789987	-0.13664	-0.177741	0.82987	-0.0579547	-0.0631648	0	-0.0269395	-0.0894821	0.0505788	2.51485	-0.271121	0.663721	1.22615	1.77536	2.71468	-0.147343	0.863827	1.21639	2.02328
1.84	-0.259549	0.105408	-0.130994	-0.219259	0.950919	-0.54755	0.725285	-0.100008	0.0941763	0.726265	-0.0440084	-0.14207	0	0.721105	-0.123139	-0.205497	0.733286	-0.144497	-0.00620155	0	-0.0184863	-0.101373	0.0581401	2.52826	-0.27406	0.714617	1.16822	1.77226	2.71572	-0.142477	0.893518	1.16461	2.05481
1.85	-0.242625	0.112844	-0.12902	-0.214859	0.974274	-0.546492	0.661164	-0.12065	0.0740616	0.630922	-0.134438	-0.087217	0	0.652821	-0.108875	-0.230948	0.629254	-0.25057	0.0449443	0	-0.00911413	-0.113056	0.0632227	2.53496	-0.279238	0.765939	1.11957	1.75968	2.70911	-0.137224	0.915647	1.11917	2.08979
1.86	-0.227138	0.117773	-0.125846	-0.210771	0.99756	-0.545461	0.596127	-0.13998	0.0480887	0.529319	-0.242287	-0.0385954	0	0.58498	-0.0957115	-0.251933	0.517567	-0.378021	0.0820971	0	0.000652384	-0.121891	0.0667122	2.53621	-0.286077	0.817251	1.07798	1.74171	2.69509	-0.133387	0.933811	1.08487	2.09
1.87	-0.212906	0.119271	-0.122097	-0.206902	1.02042	-0.544494	0.529803	-0.156015	0.0141177	0.420879	-0.368711	-0.000499867	0	0.516811	-0.0855326	-0.272335	0.400066	-0.507606	0.109879	0	0.010781	-0.126434	0.0683976	2.53227	-0.292111	0.865566	1.03963	1.72437	2.6749	-0.132846	0.946852	1.05975	2.09
1.88	-0.200663	0.119038	-0.117521	-0.203275	1.04244	-0.543725	0.465024	-0.169733	-0.0337007	0.309292	-0.500505	0.0313639	0	0.451566	-0.0768158	-0.294817	0.285805	-0.593746	0.144568	0	0.0217395	-0.128286	0.0677383	2.52452	-0.296691	0.909112	1.00326	1.71394	2.65164	-0.135581	0.957584	1.04039	2.09
1.89	-0.191298	0.118768	-0.111336	-0.200218	1.06344	-0.543243	0.406925	-0.181047	-0.0998145	0.206175	-0.599978	0.0752385	0	0.395936	-0.0666	-0.307152	0.18597	-0.612724	0.188066	0	0.0333713	-0.129535	0.0648069	2.51534	-0.30147	0.947797	0.970542	1.71288	2.62839	-0.140375	0.969077	1.02379	2.09
1.9	-0.184895	0.11746	-0.103357	-0.19811	1.08335	-0.542945	0.360075	-0.186182	-0.171014	0.125074	-0.640139	0.135933	0	0.354833	-0.0571937	-0.300979	0.10744	-0.594904	0.222028	0	0.0447642	-0.129494	0.0607315	2.50719	-0.307941	0.983299	0.942267	1.72051	2.60635	-0.146058	0.980814	1.00725	2.09
1.91	-0.181539	0.114513	-0.0937982	-0.197071	1.10194	-0.542871	0.328388	-0.185467	-0.22955	0.0730425	-0.641379	0.189317	0	0.330928	-0.0519761	-0.299822	0.055589	-0.580668	0.241138	0	0.0560249	-0.127597	0.0569292	2.50151	-0.317025	1.01755	0.918394	1.73503	2.58554	-0.151039	0.990905	0.98736	2.09
1.92	-0.182134	0.110257	-0.0827302	-0.197021	1.11898	-0.543242	0.314519	-0.184118	-0.290433	0.0512151	-0.639902	0.22371	0	0.324825	-0.0510007	-0.331966	0.0332081	-0.573109	0.260907	0	0.068757	-0.124031	0.0548297	2.49846	-0.330337	1.05111	0.900958	1.75146	2.56505	-0.153133	0.996972	0.962699	2.09
1.93	-0.186514	0.104883	-0.0712872	-0.197817	1.13453	-0.543908	0.31626	-0.185665	-0.366813	0.0564	-0.644581	0.245652	0	0.332561	-0.0544992	-0.396383	0.035527	-0.560816	0.288684	0	0.0834263	-0.119055	0.0554786	2.49679	-0.348279	1.08152	0.892508	1.76601	2.5446	-0.152483	0.997718	0.936354	2.09
